<?xml version="1.0" standalone="no"?>
<!DOCTYPE svg PUBLIC "-//W3C//DTD SVG 20010904//EN"
 "http://www.w3.org/TR/2001/REC-SVG-20010904/DTD/svg10.dtd">
<svg version="1.0" xmlns="http://www.w3.org/2000/svg"
 width="128.000000pt" height="128.000000pt" viewBox="0 0 128.000000 128.000000"
 preserveAspectRatio="xMidYMid meet">
<metadata>
Created by potrace 1.14, written by Peter Selinger 2001-2017
</metadata>
<g transform="translate(0.000000,128.000000) scale(0.100000,-0.100000)"
fill="#000000" stroke="none">
<path d="M97 873 c-2 -4 -8 -33 -13 -63 -4 -30 -8 -57 -9 -60 -1 -3 -5 -30 -9
-60 -4 -30 -9 -66 -11 -80 -16 -109 -16 -157 -1 -163 17 -7 20 5 34 123 l7 65
52 -75 c59 -87 91 -122 105 -118 5 2 9 7 9 11 -1 4 -1 15 -1 25 0 9 -12 31
-26 47 -34 38 -94 131 -94 144 0 6 26 38 58 72 40 43 57 70 59 90 1 16 -3 29
-7 29 -5 0 -39 -30 -75 -67 l-67 -68 8 50 c4 28 7 59 6 69 -1 22 -18 41 -25
29z"/>
<path d="M417 784 c-10 -10 -9 -62 1 -68 16 -10 33 12 30 39 -3 28 -18 42 -31
29z"/>
<path d="M643 711 c-51 -24 -70 -51 -83 -124 -14 -73 0 -129 35 -145 36 -17
55 -15 91 7 26 16 31 24 27 45 -6 30 -15 32 -47 11 -33 -22 -76 -5 -76 30 0
42 29 102 56 114 32 14 61 14 66 -1 6 -18 28 1 28 25 -1 50 -38 64 -97 38z"/>
<path d="M1053 715 c-22 -15 -31 -54 -16 -68 3 -4 12 -2 20 5 22 18 25 4 13
-60 -16 -81 -2 -128 43 -141 l32 -10 -35 2 c-32 2 -35 0 -35 -28 0 -26 4 -30
29 -33 49 -6 95 8 111 32 8 12 17 56 21 97 3 41 9 97 14 125 11 62 7 89 -11
89 -10 0 -18 -27 -30 -95 -13 -83 -18 -97 -40 -107 -33 -17 -58 -16 -65 2 -4
8 0 44 7 80 20 100 -5 147 -58 110z"/>
<path d="M888 713 c-39 -6 -75 -45 -88 -94 -26 -96 19 -169 105 -169 54 0 98
18 90 38 -3 7 -5 20 -5 27 0 11 -8 11 -36 3 -39 -10 -108 -3 -99 11 2 5 20 12
39 15 19 4 49 20 66 36 27 25 31 35 27 66 -8 55 -39 76 -99 67z m57 -73 c8
-13 -84 -55 -96 -43 -4 4 -5 13 -1 19 19 29 84 45 97 24z"/>
<path d="M405 678 c-24 -69 -32 -186 -14 -219 18 -34 29 -10 30 64 1 40 4 83
8 97 13 44 -10 98 -24 58z"/>
</g>
</svg>
